# WaveFront *.obj file (generated by Cinema 4D)

mtllib ./炉子（异常）.mtl

v 11.774276 105.534304 -600.935916
v 188.163165 105.534304 -600.935916
v 198.746498 98.478748 -600.935916
v 198.746498 -0.299029 -600.935916
v 1.190943 -0.299029 -600.935916
v 1.190943 98.478748 -600.935916
v 11.774276 105.534304 -0.935916
v 188.163165 105.534304 -0.935916
v 198.746498 98.478748 -0.935916
v 198.746498 -0.299029 -0.935916
v 1.190943 -0.299029 -0.935916
v 1.190943 98.478748 -0.935916
# 12 vertices

vn 0.000000 0.000000 -1.000000
vn 0.000000 0.000000 1.000000
vn 0.000000 1.000000 0.000000
vn 0.554700 0.832051 0.000000
vn 1.000000 0.000000 0.000000
vn 0.000000 -1.000000 0.000000
vn -1.000000 0.000000 0.000000
vn -0.554700 0.832051 0.000000
# 8 normals

vt 0.000000 0.464286 0.000000
vt 1.000000 0.464286 0.000000
vt 0.946429 1.000000 0.000000
vt 0.053571 1.000000 0.000000
vt 0.000000 0.964286 0.000000
vt 0.000000 1.000000 0.000000
vt 1.000000 0.964286 0.000000
vt 0.295489 1.000000 0.000000
vt 0.295489 0.000000 0.000000
vt 0.000000 0.000000 0.000000
vt 0.316797 1.000000 0.000000
vt 0.316797 0.000000 0.000000
vt 0.482271 1.000000 0.000000
vt 0.482271 0.000000 0.000000
vt 0.813218 1.000000 0.000000
vt 0.813218 0.000000 0.000000
vt 0.978692 1.000000 0.000000
vt 0.978692 0.000000 0.000000
vt 1.000000 1.000000 0.000000
vt 1.000000 0.000000 0.000000
# 20 texture coordinates

o ??_1
usemtl ??.1
f 1/6/0 2/3/1 3/7/1 4/2/1 5/1/1 6/5/1
f 12/6/0 11/1/2 10/2/2 9/7/2 8/3/2 7/4/2
f 7/10/3 8/9/3 2/8/3 1/6/3
f 8/9/4 9/12/4 3/11/4 2/8/4
f 9/12/5 10/14/5 4/13/5 3/11/5
f 10/14/6 11/16/6 5/15/6 4/13/6
f 11/16/7 12/18/7 6/17/7 5/15/7
f 12/18/8 7/20/8 1/19/8 6/17/8

v 101.481453 191.773115 -24.500000
v 27.750898 161.081448 -24.500000
v 10.112009 114.162003 -24.500000
v 13.639787 107.106448 -24.500000
v 190.028676 107.106448 -24.500000
v 193.556453 114.162003 -24.500000
v 175.917565 161.081448 -24.500000
v 101.481453 191.773115 -584.500000
v 27.750898 161.081448 -584.500000
v 10.112009 114.162003 -584.500000
v 13.639787 107.106448 -584.500000
v 190.028676 107.106448 -584.500000
v 193.556453 114.162003 -584.500000
v 175.917565 161.081448 -584.500000
# 14 vertices

vn -0.384302 0.923208 0.000000
vn -0.936040 0.351895 0.000000
vn -0.894427 -0.447214 0.000000
vn 0.894427 -0.447214 0.000000
vn 0.936040 0.351895 0.000000
vn 0.381191 0.924497 0.000000
# 6 normals

vt 0.019231 0.538462 0.000000
vt 0.498077 1.000000 0.000000
vt 0.903846 0.832692 0.000000
vt 0.980769 0.538462 0.000000
vt 0.000000 0.576923 0.000000
vt 0.096154 0.832692 0.000000
vt 1.000000 0.576923 0.000000
vt 0.176379 1.000000 0.000000
vt 0.176379 0.000000 0.000000
vt 0.287081 1.000000 0.000000
vt 0.287081 0.000000 0.000000
vt 0.304502 1.000000 0.000000
vt 0.304502 0.000000 0.000000
vt 0.694058 1.000000 0.000000
vt 0.694058 0.000000 0.000000
vt 0.711479 1.000000 0.000000
vt 0.711479 0.000000 0.000000
vt 0.822182 1.000000 0.000000
vt 0.822182 0.000000 0.000000
# 19 texture coordinates

o ??
usemtl ??.1
f 13/22/2 14/26/2 15/25/2 16/21/2 17/24/2 18/27/2 19/23/2
f 26/23/1 25/27/1 24/24/1 23/21/1 22/25/1 21/26/1 20/22/1
f 20/10/9 21/29/9 14/28/9 13/6/9
f 21/29/10 22/31/10 15/30/10 14/28/10
f 22/31/11 23/33/11 16/32/11 15/30/11
f 23/33/6 24/35/6 17/34/6 16/32/6
f 24/35/12 25/37/12 18/36/12 17/34/12
f 25/37/13 26/39/13 19/38/13 18/36/13
f 26/39/14 20/20/14 13/19/14 19/38/14

